{
  "asset": {
    "version": "2.0",
    "generator": "THREE.GLTFExporter"
  },
  "scenes": [
    {
      "nodes": [
        0
      ]
    }
  ],
  "scene": 0,
  "nodes": [
    {
      "children": [
        7
      ],
      "matrix": [
        0.01,
        0,
        0,
        0,
        0,
        0.01,
        0,
        0,
        0,
        0,
        0.01,
        0,
        0,
        0,
        0,
        1
      ]
    },
    {
      "name": "geometry_0",
      "mesh": 0
    },
    {
      "matrix": [
        0.614370394114031,
        0.007329946201077551,
        0.7889837075154719,
        0,
        -0.011346944691832433,
        0.9999355182584715,
        -0.000454060923764976,
        0,
        -0.7889361607141169,
        -0.008673592903249684,
        0.6144139509352128,
        0,
        0.19261876761100707,
        0.02144066691398622,
        0.011571014607785098,
        1
      ],
      "name": "world",
      "children": [
        1
      ]
    },
    {
      "matrix": [
        98.07326215123942,
        0,
        99.79743131250157,
        0,
        0,
        139.9210207422716,
        0,
        0,
        -99.79743131250157,
        0,
        98.07326215123942,
        0,
        0,
        26,
        -24,
        1
      ],
      "name": "tmp8kghi8l_",
      "children": [
        2
      ]
    },
    {
      "matrix": [
        0.5883484054145521,
        0.39223227027636803,
        -0.7071067811865475,
        0,
        -0.554700196225229,
        0.8320502943378437,
        0,
        0,
        0.588348405414552,
        0.392232270276368,
        0.7071067811865476,
        0,
        0,
        0,
        0,
        1
      ],
      "name": "Directional Light",
      "extensions": {
        "KHR_lights_punctual": {
          "light": 0
        }
      }
    },
    {
      "matrix": [
        2.220446049250313e-16,
        0,
        -1,
        0,
        -6.128431095930865e-17,
        1,
        -1.232595164407831e-32,
        0,
        1,
        6.128431095930865e-17,
        2.220446049250313e-16,
        0,
        983.4728151763939,
        3.2195814591441234,
        5.894386446692374e-13,
        1
      ],
      "camera": 0
    },
    {
      "matrix": [
        1,
        0,
        0,
        0,
        0,
        1,
        0,
        0,
        0,
        0,
        1,
        0,
        0,
        1,
        0,
        1
      ],
      "name": "Default Ambient Light"
    },
    {
      "name": "Scene 1",
      "children": [
        3,
        4,
        5,
        6
      ]
    }
  ],
  "bufferViews": [
    {
      "buffer": 0,
      "byteOffset": 0,
      "byteLength": 55620,
      "target": 34962,
      "byteStride": 12
    },
    {
      "buffer": 0,
      "byteOffset": 55620,
      "byteLength": 37080,
      "target": 34962,
      "byteStride": 8
    },
    {
      "buffer": 0,
      "byteOffset": 92700,
      "byteLength": 55620,
      "target": 34962,
      "byteStride": 12
    },
    {
      "buffer": 0,
      "byteOffset": 148320,
      "byteLength": 89952,
      "target": 34963
    }
  ],
  "buffers": [
    {
      "byteLength": 238272,
      "uri": "data:application/octet-stream;base64,"
    }
  ],
  "accessors": [
    {
      "bufferView": 0,
      "componentType": 5126,
      "count": 4635,
      "max": [
        0.3757082223892212,
        0.3554784059524536,
        0.024626553058624268
      ],
      "min": [
        -0.37539172172546387,
        -0.3592104911804199,
        -0.02777719497680664
      ],
      "type": "VEC3"
    },
    {
      "bufferView": 1,
      "componentType": 5126,
      "count": 4635,
      "max": [
        0.9397062063217163,
        0.9933333396911621
      ],
      "min": [
        0.003333333181217313,
        0.0033333301544189453
      ],
      "type": "VEC2"
    },
    {
      "bufferView": 2,
      "componentType": 5126,
      "count": 4635,
      "max": [
        0.9783046245574951,
        0.9999862313270569,
        0.9999578595161438
      ],
      "min": [
        -0.9852727651596069,
        -0.9957793951034546,
        -0.9999967217445374
      ],
      "type": "VEC3"
    },
    {
      "bufferView": 3,
      "componentType": 5125,
      "count": 22488,
      "max": [
        4634
      ],
      "min": [
        0
      ],
      "type": "SCALAR"
    }
  ],
  "meshes": [
    {
      "primitives": [
        {
          "mode": 4,
          "attributes": {
            "POSITION": 0,
            "TEXCOORD_0": 1,
            "NORMAL": 2
          },
          "extras": {
            "parameters": {
              "width": 0.7510999441146851,
              "height": 0.7146888971328735,
              "depth": 0.05240374803543091,
              "subdivisions": 0
            },
            "type": "NonParametricGeometry"
          },
          "indices": 3
        }
      ]
    }
  ],
  "extensions": {
    "KHR_lights_punctual": {
      "lights": [
        {
          "name": "Directional Light",
          "color": [
            1,
            1,
            1
          ],
          "intensity": 0.7,
          "type": "directional"
        }
      ]
    }
  },
  "cameras": [
    {
      "type": "orthographic",
      "orthographic": {
        "xmag": 2.0605321338522,
        "ymag": 1.0141681596303795,
        "zfar": 100000,
        "znear": 0
      }
    }
  ],
  "extensionsUsed": [
    "KHR_lights_punctual"
  ]
}