<?xml version="1.0" encoding="UTF-8"?>
<svg version="1.1" xmlns="http://www.w3.org/2000/svg" width="3000" height="224">
<path d="M0 0 C88.11 0 176.22 0 267 0 C265.68233228 15.81201267 262.52134431 25.0329841 251.25 35.75 C238.68720299 46.20282917 223.75282959 46.29602333 208.24951172 46.22705078 C206.46480821 46.22648586 204.68010424 46.22680481 202.895401 46.22793579 C198.0758577 46.22850714 193.25641494 46.21678829 188.43689489 46.20278788 C183.3907253 46.19024401 178.34455314 46.18910714 173.29837036 46.18673706 C163.75407809 46.18053301 154.20983191 46.16413679 144.66555989 46.14403808 C133.79492459 46.12164556 122.92428704 46.11067723 112.05363441 46.10064721 C89.70239154 46.07976957 67.35121181 46.04310681 45 46 C45 60.19 45 74.38 45 89 C118.26 89 191.52 89 267 89 C267 133.22 267 177.44 267 223 C178.89 223 90.78 223 0 223 C0 210.67861304 2.46131973 202.64804337 10 193 C10.47824219 192.38382813 10.95648437 191.76765625 11.44921875 191.1328125 C17.02538044 184.81222621 26.64665861 179.54891265 35 178 C37.52370354 177.90858575 40.01899436 177.86942342 42.54229736 177.87974548 C43.68673502 177.87846385 43.68673502 177.87846385 44.85429263 177.87715632 C47.4123257 177.87550843 49.97029328 177.8810116 52.52832031 177.88647461 C54.36139932 177.88675666 56.19447843 177.88659841 58.02755737 177.8860321 C63.00651043 177.88574481 67.98543947 177.89163057 72.96438694 177.89860606 C78.16674745 177.9048509 83.36910849 177.9054443 88.57147217 177.90663147 C98.42406638 177.90974144 108.27664951 177.91795035 118.12923884 177.92798096 C129.34556169 177.93915244 140.56188505 177.94465516 151.77821207 177.94967639 C174.85214894 177.96013322 197.92607062 177.97847458 221 178 C221 163.48 221 148.96 221 134 C148.07 134 75.14 134 0 134 C0 89.78 0 45.56 0 0 Z " fill="#000000" transform="translate(1093,0)"/>
<path d="M0 0 C88.11 0 176.22 0 267 0 C267 13.92535039 264.38854397 22.62070515 255 33 C244.33790563 42.49866703 233.44815807 46.18057271 219.28675842 46.12025452 C218.1691025 46.12153615 218.1691025 46.12153615 217.02886766 46.12284368 C214.54924941 46.12448181 212.06969984 46.11900459 209.59008789 46.11352539 C207.80582684 46.11324313 206.02156567 46.11340201 204.23730469 46.1139679 C199.40521846 46.11425436 194.57315715 46.10838194 189.74107671 46.10139394 C184.68687775 46.09513536 179.63267819 46.09455462 174.57847595 46.09336853 C165.01285081 46.0902626 155.44723712 46.08205916 145.88161701 46.07201904 C134.98928137 46.06083499 124.09694518 46.05534167 113.20460522 46.05032361 C90.80306234 46.03987593 68.40153515 46.02153962 46 46 C46 60.19 46 74.38 46 89 C118.93 89 191.86 89 267 89 C267 133.22 267 177.44 267 223 C178.89 223 90.78 223 0 223 C1.11398107 210.74620826 2.85614105 202.22057107 11 193 C11.53625 192.38253906 12.0725 191.76507813 12.625 191.12890625 C16.81050991 186.62366988 21.36886025 183.46890812 27 181 C28.16542831 180.48849899 29.33085663 179.97699799 30.53160095 179.44999695 C38.10086108 176.97639676 46.22389665 177.60844401 54.09594727 177.65942383 C55.92976365 177.66027096 57.76358105 177.65979328 59.59739685 177.65809631 C64.55547349 177.6572383 69.5133308 177.67483265 74.47135663 177.69581819 C79.66033128 177.71461734 84.84931137 177.71633798 90.03831482 177.71989441 C99.85536953 177.72920536 109.67232359 177.7538063 119.48933405 177.78394288 C130.66948513 177.81751645 141.84964112 177.83398033 153.0298301 177.84902918 C176.01995533 177.88035671 199.00994264 177.93535694 222 178 C222 163.48 222 148.96 222 134 C148.74 134 75.48 134 0 134 C0 89.78 0 45.56 0 0 Z " fill="#000000" transform="translate(2733,0)"/>
<path d="M0 0 C88.11 0 176.22 0 267 0 C264.59676415 18.02426888 260.90726518 27.65392016 246.9296875 38.625 C236.46918837 45.73983341 224.93808091 45.41941456 212.79052734 45.34057617 C210.95656346 45.33972884 209.12259855 45.34020711 207.28863525 45.34190369 C202.33474969 45.34276093 197.38108409 45.32517923 192.42724943 45.30418181 C187.24094999 45.28536964 182.05464495 45.283661 176.86831665 45.28010559 C167.05837835 45.27079844 157.2485409 45.2462027 147.43864691 45.21605712 C136.26572767 45.18247165 125.09280349 45.16601668 113.9198463 45.15097082 C90.94649549 45.11965192 67.97328284 45.0646565 45 45 C45 59.52 45 74.04 45 89 C118.26 89 191.52 89 267 89 C267 133.22 267 177.44 267 223 C178.89 223 90.78 223 0 223 C0 209.0640506 2.61643185 200.39119963 12 190 C22.32261235 180.67836824 33.82089253 176.82133426 47.59298706 176.87974548 C48.33723659 176.87889106 49.08148611 176.87803663 49.84828866 176.87715632 C52.33101284 176.87551505 54.8136688 176.88100065 57.29638672 176.88647461 C59.08050027 176.8867568 60.86461393 176.88659813 62.64872742 176.8860321 C67.48500493 176.88574537 72.32125761 176.8916221 77.15752935 176.89860606 C82.21440346 176.90486021 87.27127814 176.90544503 92.32815552 176.90663147 C101.90089715 176.9097387 111.47362735 176.91794391 121.04636395 176.92798096 C131.94593141 176.93916096 142.84549941 176.94465731 153.74507117 176.94967639 C176.16338858 176.96012702 198.58169031 176.97846496 221 177 C221 162.81 221 148.62 221 134 C148.07 134 75.14 134 0 134 C0 89.78 0 45.56 0 0 Z " fill="#000000" transform="translate(0,1)"/>
<path d="M0 0 C2.0002124 -0.00571009 4.00042155 -0.01267681 6.00062561 -0.02079773 C11.40774681 -0.03867409 16.81470523 -0.03757109 22.22184706 -0.03185534 C26.74696816 -0.02875533 31.27205836 -0.03486501 35.79717505 -0.04089409 C46.47825375 -0.05491974 57.15925243 -0.05339449 67.84033203 -0.04199219 C78.83475557 -0.03051425 89.82893508 -0.04458579 100.82332647 -0.07138866 C110.28611091 -0.09358823 119.74881899 -0.10017341 129.2116276 -0.09431225 C134.85305225 -0.09095151 140.49432053 -0.09329893 146.13572311 -0.11056328 C151.4431705 -0.12609813 156.75025807 -0.1220045 162.05769157 -0.10325813 C163.99698381 -0.09959025 165.9363031 -0.1026277 167.8755703 -0.11314392 C181.44348679 -0.18105944 194.35864909 0.08926431 205.20556641 9.42358398 C215.3513441 19.81531992 216.58950105 30.98400443 216.54321289 44.92285156 C216.54892376 46.48104845 216.55589078 48.03924117 216.56401062 49.59742737 C216.58188069 53.80837051 216.58078498 58.01910456 216.57506824 62.23007417 C216.57196663 65.75609053 216.5780798 69.28206729 216.58410698 72.80807799 C216.59813119 81.13315354 216.59660923 89.45812643 216.58520508 97.78320312 C216.57373325 106.3464317 216.58778855 114.90934674 216.61460155 123.472534 C216.63682026 130.84696196 216.64338186 138.22129196 216.63752514 145.59575099 C216.63416819 149.99025431 216.63648575 154.38455685 216.65377617 158.77903175 C216.6693414 162.91523738 216.66518477 167.05098199 216.64647102 171.18717003 C216.64281107 172.69632764 216.64581699 174.20552014 216.65635681 175.71464539 C216.75311424 190.7268011 213.73163746 201.3928742 203.29541016 212.33764648 C194.69122171 220.53630965 184.77968015 223.55804586 173.126297 223.54449463 C172.32462072 223.54746575 171.52294443 223.55043687 170.69697493 223.55349803 C168.01338608 223.56216255 165.32984196 223.56369138 162.64624023 223.56518555 C160.72086492 223.56981534 158.79549052 223.57484022 156.87011719 223.58023071 C151.64057011 223.59334186 146.41103587 223.59979726 141.18147492 223.60424137 C137.91241614 223.60717439 134.64336084 223.61127966 131.37430382 223.61574554 C121.14088355 223.62941759 110.90747129 223.63908547 100.67404252 223.64294744 C88.8710664 223.64742649 77.06820617 223.66496857 65.26526529 223.69394803 C56.13556965 223.71558383 47.00590659 223.72565275 37.8761856 223.72698855 C32.42648879 223.72803529 26.97690098 223.73391513 21.52723122 223.75180817 C16.39804782 223.76832144 11.26905498 223.77042851 6.13985443 223.76166916 C4.26219102 223.76090051 2.38451723 223.76521871 0.50687981 223.77512741 C-15.03493285 223.85230415 -27.42436012 222.12078481 -39.54833984 211.40405273 C-47.09855049 203.40549229 -50.96790908 192.66600631 -51.00801086 181.84054565 C-51.01168755 181.19474993 -51.01536424 180.5489542 -51.01915234 179.88358891 C-51.03013321 177.72747881 -51.03402347 175.571417 -51.0378418 173.4152832 C-51.04411075 171.86590931 -51.05075793 170.31653691 -51.05775452 168.76716614 C-51.0787484 163.68520139 -51.08915348 158.60323651 -51.09912109 153.52124023 C-51.10317059 151.76784373 -51.10728757 150.01444737 -51.11147118 148.26105118 C-51.13051367 140.02081463 -51.1447459 131.78058698 -51.15308315 123.54033267 C-51.16284819 114.04710242 -51.18915249 104.55410578 -51.22958404 95.06095779 C-51.25980585 87.7112747 -51.27455781 80.36165836 -51.27786416 73.01191437 C-51.28020797 68.62797357 -51.28908071 64.2442826 -51.31432533 59.86040878 C-51.3377172 55.73168476 -51.34179504 51.60337312 -51.33156395 47.47459984 C-51.33107115 45.96662328 -51.33731553 44.45862565 -51.35112 42.9507122 C-51.45547806 30.8666101 -49.81917423 20.88565342 -41.83349609 11.40795898 C-30.14620219 -0.46448017 -15.54405306 -0.04016474 0 0 Z M-5.86083984 46.40405273 C-5.92271484 66.57530273 -5.98458984 86.74655273 -6.04833984 107.52905273 C-6.07565186 113.89589355 -6.10296387 120.26273438 -6.13110352 126.82250977 C-6.14113742 132.53452821 -6.14113742 132.53452821 -6.14717102 138.24655151 C-6.15177482 140.78880386 -6.16231996 143.3310497 -6.17756653 145.8732605 C-6.19951724 149.72625087 -6.20255812 153.57884126 -6.20141602 157.43188477 C-6.21221034 158.56260469 -6.22300467 159.69332462 -6.23412609 160.85830879 C-6.26148386 168.60311612 -6.26148386 168.60311612 -2.86083984 175.40405273 C1.51783855 178.04917638 4.77251422 178.78004294 9.85656738 178.78500366 C10.83183435 178.79202362 10.83183435 178.79202362 11.82680368 178.7991854 C13.99168081 178.81109105 16.15591967 178.80169615 18.32080078 178.79223633 C19.87843697 178.79630402 21.43607027 178.80164701 22.99369812 178.8081665 C27.21475766 178.82182246 31.43559678 178.8165486 35.65666008 178.80702925 C40.07811951 178.79942373 44.49956032 178.80648074 48.92102051 178.81118774 C56.34549338 178.81664269 63.76987667 178.80946052 71.19433594 178.79516602 C79.77291306 178.77883999 88.35127626 178.78412868 96.92984819 178.80064523 C104.30072117 178.81426752 111.67152983 178.81617613 119.04241133 178.80832922 C123.44231643 178.80365679 127.84212104 178.80301602 132.24201965 178.81293869 C136.3789297 178.8216169 140.51556447 178.81557094 144.65244484 178.79825592 C146.16895402 178.79429563 147.68548644 178.79541731 149.20198631 178.80204391 C151.27555259 178.81026803 153.34824219 178.79992876 155.42175293 178.78500366 C157.16054844 178.78330705 157.16054844 178.78330705 158.93447113 178.78157616 C162.66614813 178.34197173 164.98519591 177.44240351 168.13916016 175.40405273 C170.84425346 171.96407768 171.51307949 169.42351348 171.49992371 165.09526062 C171.5040562 164.0472034 171.50818869 162.99914618 171.5124464 161.91932964 C171.50165208 160.77564324 171.49085775 159.63195684 171.47973633 158.45361328 C171.48009793 157.22389958 171.48045954 155.99418589 171.4808321 154.72720814 C171.47896489 151.4081491 171.46415245 148.0896557 171.44300079 144.77069855 C171.42588452 141.65357877 171.42510973 138.5364727 171.42297363 135.41931152 C171.40724719 126.31001559 171.36536355 117.20078002 171.32666016 108.09155273 C171.26478516 87.73467773 171.20291016 67.37780273 171.13916016 46.40405273 C112.72916016 46.40405273 54.31916016 46.40405273 -5.86083984 46.40405273 Z " fill="#000000" transform="translate(2473.86083984375,-0.404052734375)"/>
<path d="M0 0 C88.11 0 176.22 0 267 0 C267.0825 30.421875 267.165 60.84375 267.25 92.1875 C267.28641602 101.77965576 267.32283203 111.37181152 267.36035156 121.25463867 C267.37841797 133.00256348 267.37841797 133.00256348 267.3817749 138.50898743 C267.38548906 142.3401778 267.40042901 146.17114462 267.42230225 150.00227356 C267.44989731 154.90107147 267.45793556 159.79954793 267.4522891 164.69841635 C267.45346845 166.48881319 267.46130623 168.27922217 267.47686052 170.06955183 C267.59005127 183.74182691 266.69169738 196.42263837 257 207 C256.21625 207.86625 255.4325 208.7325 254.625 209.625 C244.18645633 219.06939666 234.70762681 223.16671084 220.66703796 223.12025452 C219.25180421 223.12153615 219.25180421 223.12153615 217.80797988 223.12284368 C214.6449979 223.12449143 211.4820689 223.1189886 208.3190918 223.11352539 C206.05237326 223.11324334 203.78565464 223.1134016 201.51893616 223.1139679 C195.36239581 223.11425518 189.20587488 223.10836959 183.04933906 223.10139394 C176.61645592 223.09514891 170.18357235 223.09455569 163.75068665 223.09336853 C152.95252099 223.0906121 142.15436331 223.08436298 131.35620117 223.07543945 C120.23478226 223.06625836 109.11336529 223.0591924 97.99194336 223.05493164 C96.9529148 223.05452964 96.9529148 223.05452964 95.89289576 223.05411953 C89.86738626 223.05180663 83.84187671 223.04965386 77.81636715 223.04751682 C51.87757139 223.03810968 25.93879453 223.01818848 0 223 C0 178.78 0 134.56 0 89 C14.85 89 29.7 89 45 89 C45 118.37 45 147.74 45 178 C72.83798652 177.93853699 72.83798652 177.93853699 100.67578125 177.83984375 C112.03075979 177.79132 123.38564896 177.74686992 134.74072266 177.72900391 C143.01121265 177.71597232 151.28152065 177.68896924 159.55190814 177.64538693 C163.92857356 177.62280596 168.30501478 177.60708729 172.68174362 177.60811615 C176.80720182 177.60886476 180.93216506 177.59083398 185.05749512 177.55883217 C186.56585048 177.55036246 188.07426154 177.54856322 189.58263016 177.55419731 C199.42071595 177.58603009 208.36037059 177.24476733 215.9375 170.3125 C220.65748125 162.73192405 221.4448046 155.48888064 221.43237305 146.69702148 C221.4425647 145.60330734 221.45275635 144.5095932 221.46325684 143.38273621 C221.49326455 139.79546911 221.5026343 136.2084696 221.51171875 132.62109375 C221.52857445 130.12288026 221.54672588 127.6246752 221.56611633 125.1264801 C221.60868911 119.24066513 221.63826897 113.35489892 221.66143972 107.46897799 C221.69124035 100.10357664 221.7414192 92.73833692 221.79101562 85.37304688 C221.87694536 72.24876206 221.94490312 59.12444863 222 46 C221.07400403 46.00276538 220.14800806 46.00553076 219.19395161 46.00837994 C196.62398885 46.07508795 174.05403894 46.1243291 151.4839983 46.15543652 C140.56913046 46.17088109 129.65432789 46.19192443 118.73950195 46.22631836 C109.22205026 46.2562946 99.70464586 46.2755925 90.18714827 46.28226548 C85.15142216 46.28616383 80.1158313 46.29527499 75.0801487 46.31719017 C70.33187005 46.33768544 65.58378125 46.34380765 60.83546257 46.33932304 C59.10096324 46.34014245 57.36645698 46.3460299 55.63199615 46.35761642 C41.42053572 46.44782467 28.96028544 45.49005664 17 37 C15.948125 36.278125 14.89625 35.55625 13.8125 34.8125 C7.15528942 28.15528942 1.13387445 18.52454539 0 9 C0 6.03 0 3.06 0 0 Z " fill="#000000" transform="translate(2024,0)"/>
<path d="M0 0 C15.18 0 30.36 0 46 0 C46 58.74 46 117.48 46 178 C71.719375 177.896875 97.43875 177.79375 123.9375 177.6875 C132.05206787 177.66260498 140.16663574 177.63770996 148.52709961 177.61206055 C155.81447142 177.57548706 155.81447142 177.57548706 163.1018219 177.5349884 C166.34227443 177.517085 169.58263711 177.50745287 172.82313538 177.50288391 C176.96313804 177.49677313 181.10284389 177.47636888 185.24273598 177.44583857 C186.75798852 177.43705685 188.27327997 177.43319639 189.78855693 177.43496072 C203.11220086 177.50894022 203.11220086 177.50894022 214.8125 171.8125 C221.4581432 163.26810161 221.58388306 155.73183568 221.54589844 145.3125 C221.55464237 143.725123 221.56513101 142.1377548 221.57722473 140.55039978 C221.60500511 136.25961743 221.60849118 131.96912382 221.60750484 127.67826462 C221.61064081 123.1872186 221.63627324 118.69630131 221.65948486 114.20532227 C221.69999608 105.70929981 221.72037409 97.21335401 221.73345876 88.71724987 C221.74934534 79.04124268 221.78776796 69.36536563 221.82805204 59.68943405 C221.9103843 39.79297396 221.9615435 19.89659662 222 0 C237.18 0 252.36 0 268 0 C268.04520169 23.39222178 268.0820211 46.78440803 268.10362434 70.17666245 C268.11392311 81.0388521 268.12795665 91.90101263 268.15087891 102.76318359 C268.17085567 112.23411366 268.1837266 121.70502263 268.18817699 131.17597318 C268.19077711 136.18760113 268.19685928 141.19916873 268.21146011 146.21077728 C268.22511181 150.93522268 268.2292074 155.6595833 268.22621536 160.38404655 C268.22676215 162.11089731 268.23069413 163.83775113 268.23841095 165.56458473 C268.31325445 183.18849048 267.15191283 197.36611497 254.515625 210.671875 C240.56107064 223.58633835 225.59823692 223.43461587 207.63793945 223.34057617 C205.37033601 223.33972906 203.10273175 223.34020668 200.83512878 223.34190369 C194.70367154 223.34276178 188.5723916 223.32516605 182.44097543 223.30418181 C176.02415133 223.28538401 169.60732284 223.28366212 163.19047546 223.28010559 C152.42813482 223.27185109 141.6658714 223.253133 130.90356445 223.22631836 C119.82316402 223.19874005 108.74278131 223.17755942 97.66235352 223.16479492 C96.97127579 223.16399093 96.28019807 223.16318694 95.56817859 223.16235858 C89.55587483 223.15541913 83.54357057 223.14896116 77.53126621 223.14255047 C51.68744989 223.11437107 25.84380528 223.05459532 0 223 C0 149.41 0 75.82 0 0 Z " fill="#000000" transform="translate(1713,0)"/>
<path d="M0 0 C14.85 0 29.7 0 45 0 C45 58.41 45 116.82 45 177 C71.379375 176.938125 97.75875 176.87625 124.9375 176.8125 C137.42259399 176.80246948 137.42259399 176.80246948 150.15991211 176.79223633 C157.63356798 176.76235332 157.63356798 176.76235332 165.10719299 176.72587585 C168.43105563 176.70982919 171.75461255 176.70768197 175.07850647 176.71403503 C179.32470278 176.72169157 183.57018379 176.70534989 187.81624901 176.67198312 C189.37057636 176.6637903 190.92497583 176.66387065 192.47929561 176.67339098 C200.92647492 176.72025007 208.16482799 176.54304247 215 171 C222.35921144 162.69729992 221.30433325 151.08223624 221.31884766 140.65795898 C221.3281596 139.11969992 221.33833014 137.58144585 221.34928894 136.04319763 C221.37646034 131.89098099 221.39169997 127.73879804 221.40471697 123.58651614 C221.42040411 119.23830753 221.44717639 114.89016714 221.4727478 110.54200745 C221.51943709 102.31874534 221.55622872 94.09547026 221.58942068 85.87214381 C221.62771186 76.5056865 221.6771036 67.13929787 221.72740483 57.77289855 C221.83057813 38.51531022 221.91842068 19.25769275 222 0 C236.85 0 251.7 0 267 0 C267.06779951 23.78337438 267.12302984 47.56667015 267.15543652 71.35011673 C267.17088545 82.3939282 267.1919372 93.43767522 267.22631836 104.48144531 C267.25628117 114.11058877 267.27558934 123.73968553 267.28226548 133.36887431 C267.28616609 138.46437153 267.29529181 143.55973522 267.31719017 148.65518951 C267.33766413 153.45845646 267.34381187 158.26153578 267.33932304 163.06484222 C267.34014339 164.82072471 267.34604368 166.57661395 267.35761642 168.3324585 C267.45873867 184.47690453 265.74494488 198.09900194 254.125 210.3125 C243.57926097 220.23790144 231.86323999 223.16803846 217.66067505 223.12025452 C216.72858211 223.12110894 215.79648918 223.12196337 214.836151 223.12284368 C211.71773337 223.12448876 208.5993697 223.11899301 205.48095703 223.11352539 C203.24364727 223.11324328 201.00633742 223.11340171 198.76902771 223.1139679 C192.6972545 223.11425495 186.62550102 223.108373 180.5537324 223.10139394 C174.20760606 223.09514517 167.86147928 223.09455539 161.51535034 223.09336853 C150.86439634 223.09061299 140.21345014 223.08436561 129.5625 223.07543945 C118.59342484 223.06625626 107.62435166 223.05919133 96.65527344 223.05493164 C95.63022563 223.05452964 95.63022563 223.05452964 94.5844698 223.05411953 C88.63989834 223.05180659 82.69532683 223.04965383 76.75075531 223.04751682 C51.1671634 223.0381122 25.58359067 223.01819026 0 223 C0 149.41 0 75.82 0 0 Z " fill="#000000" transform="translate(310,1)"/>
<path d="M0 0 C6.86434664 -0.076815 13.72858021 -0.1289168 20.59326172 -0.16479492 C22.92273094 -0.17977077 25.2521725 -0.2001586 27.58154297 -0.22631836 C47.5179925 -0.44441337 66.08211326 -0.48845201 81.55340576 13.9120636 C82.0685262 14.39123334 82.58364664 14.87040309 83.11437678 15.36409312 C89.21563184 21.07708992 95.12040537 26.98787479 101.02050781 32.90698242 C102.27327824 34.16003575 103.52627054 35.41286729 104.77946472 36.66549683 C108.14245854 40.02820666 111.50238551 43.39396508 114.86172199 46.76032805 C118.38726358 50.29217038 121.91568487 53.82113354 125.44378662 57.35041809 C132.10714384 64.01686898 138.76795044 70.68586218 145.42781806 77.35579902 C153.01724983 84.95645332 160.60956086 92.5542288 168.20210123 100.15177763 C183.80458048 115.76467671 199.40348544 131.38114263 215 147 C214.99962297 146.37715244 214.99924595 145.75430489 214.9988575 145.11258316 C214.99172014 129.91156496 215.01782017 114.71099111 215.0802784 99.51012039 C215.10969389 92.1588529 215.12812729 84.80787283 215.12011719 77.45654297 C215.11315874 71.04421561 215.12740705 64.63233365 215.16643608 58.22011542 C215.18635335 54.82914326 215.1961158 51.43886904 215.18042374 48.04785919 C215.16819342 44.24899126 215.19344184 40.45202254 215.22705078 36.65332031 C215.21482986 35.54632278 215.20260895 34.43932526 215.1900177 33.29878235 C215.33491101 24.15552829 218.05912572 16.34212947 224.27530098 9.49303055 C236.90909827 -2.51749948 248.99660591 0 267 0 C267 73.59 267 147.18 267 223 C217.9036206 224.09103065 217.9036206 224.09103065 204.73417568 212.75683117 C203.93508313 211.86629197 203.13599058 210.97575277 202.31268311 210.05822754 C201.36261583 209.0271604 200.41113335 207.99739591 199.45841217 206.96878052 C198.97994225 206.44344015 198.50147233 205.91809977 198.00850332 205.37684 C195.40179601 202.57075018 192.65801104 199.9034566 189.93104553 197.21504211 C185.25198318 192.56655155 180.6629089 187.84305722 176.12865257 183.05336571 C169.57363531 176.12915739 162.89209565 169.33859272 156.17589835 162.57105462 C145.27676092 151.58156441 134.48444629 140.49323995 123.7565918 129.33666992 C113.3540303 118.51882561 102.90036729 107.75457292 92.37670898 97.05444336 C91.72541852 96.39219842 91.07412806 95.72995349 90.40310153 95.04764052 C87.78469268 92.3856384 85.16587475 89.72403965 82.54652418 87.06296415 C62.01731124 66.20653256 41.55116862 45.28914417 21.2240907 24.235551 C19.67469968 22.63207667 18.12348009 21.03039228 16.57172012 19.42921066 C13.75009098 16.5170641 10.93698018 13.59684316 8.12516785 10.67521667 C7.29207271 9.81656972 6.45897758 8.95792276 5.60063714 8.07325619 C4.48229358 6.90638727 4.48229358 6.90638727 3.34135723 5.71594524 C2.69136719 5.04177931 2.04137716 4.36761337 1.37169045 3.67301816 C0 2 0 2 0 0 Z " fill="#000000" transform="translate(620,0)"/>
<path d="M0 0 C88.11 0 176.22 0 267 0 C267 13.46298766 263.53416489 23.45968097 254.125 33.3125 C228.89738702 57.05613575 184.81627972 46 156 46 C156 104.41 156 162.82 156 223 C141.15 223 126.3 223 111 223 C111 164.59 111 106.18 111 46 C87.57 46 64.14 46 40 46 C26.07581614 42.7867268 16.84475631 39.07708487 8 28 C2.25607962 18.66459193 0 10.98387304 0 0 Z " fill="#000000" transform="translate(1403,0)"/>
<path d="M0 0 C15.18 0 30.36 0 46 0 C46 73.59 46 147.18 46 223 C30.82 223 15.64 223 0 223 C0 149.41 0 75.82 0 0 Z " fill="#000000" transform="translate(2334,0)"/>
<path d="M0 0 C2.31 1.98 4.62 3.96 7 6 C8.57862615 7.01255522 10.18780515 7.98038045 11.83374023 8.87939453 C28.13641384 18.33502916 44.99046244 31.38933932 51 50 C55.39847257 69.69301339 54.30751009 90.67734996 53.75 110.75 C53.73162126 111.42453122 53.71324252 112.09906244 53.69430685 112.794034 C53.19915008 130.56248389 52.15212572 148.25260891 51 166 C34.17 166 17.34 166 0 166 C0 111.22 0 56.44 0 0 Z " fill="#000000" transform="translate(620,57)"/>
</svg>
