<?xml version="1.0" encoding="UTF-8"?>
<svg id="Layer_1" xmlns="http://www.w3.org/2000/svg" version="1.1" viewBox="0 0 3330.9 275.1">
  <!-- Generator: Adobe Illustrator 29.3.0, SVG Export Plug-In . SVG Version: 2.1.0 Build 146)  -->
  <defs>
    <style>
      .st0 {
        stroke: #000;
        stroke-miterlimit: 10;
        stroke-width: 20px;
      }
    </style>
  </defs>
  <path class="st0" d="M1215.6,14.5h293.3c-1.4,17.4-4.9,27.5-17.3,39.3-13.8,11.5-30.2,11.6-47.2,11.5-2,0-3.9,0-5.9,0-5.3,0-10.6,0-15.9,0-5.5,0-11.1,0-16.6,0-10.5,0-21,0-31.5,0-11.9,0-23.9,0-35.8,0-24.6,0-49.1,0-73.7-.1v47.2h243.8v147.2h-293.3c0-13.5,2.7-22.4,11-33,.5-.7,1.1-1.4,1.6-2.1,6.1-6.9,16.7-12.7,25.9-14.4,2.8-.1,5.5-.1,8.3-.1q1.3,0,2.5,0c2.8,0,5.6,0,8.4,0,2,0,4,0,6,0,5.5,0,10.9,0,16.4,0,5.7,0,11.4,0,17.1,0,10.8,0,21.6,0,32.5,0,12.3,0,24.6,0,37,0,25.3,0,50.7,0,76,0v-48.3h-242.7V14.5Z"/>
  <path class="st0" d="M3017,14.5h293.3c0,15.3-2.9,24.8-13.2,36.2-11.7,10.4-23.7,14.5-39.2,14.4q-1.2,0-2.5,0c-2.7,0-5.4,0-8.2,0-2,0-3.9,0-5.9,0-5.3,0-10.6,0-15.9,0-5.6,0-11.1,0-16.7,0-10.5,0-21,0-31.5,0-12,0-23.9,0-35.9,0-24.6,0-49.2,0-73.8,0v47.2h242.7v147.2h-293.3c1.2-13.5,3.1-22.8,12.1-33,.6-.7,1.2-1.4,1.8-2.1,4.6-4.9,9.6-8.4,15.8-11.1,1.3-.6,2.6-1.1,3.9-1.7,8.3-2.7,17.2-2,25.9-2,2,0,4,0,6,0,5.4,0,10.9,0,16.3,0,5.7,0,11.4,0,17.1,0,10.8,0,21.6,0,32.3,0,12.3,0,24.6,0,36.8,0,25.3,0,50.5,0,75.8.2v-48.3h-243.8V14.5Z"/>
  <path class="st0" d="M15,15.6h293.3c-2.6,19.8-6.7,30.4-22,42.4-11.5,7.8-24.2,7.5-37.5,7.4-2,0-4,0-6,0-5.4,0-10.9,0-16.3,0-5.7,0-11.4,0-17.1,0-10.8,0-21.6,0-32.3,0-12.3,0-24.5,0-36.8,0-25.2,0-50.5,0-75.7-.2v48.3h243.8v147.2H15c0-15.3,2.9-24.8,13.2-36.2,11.3-10.2,24-14.5,39.1-14.4.8,0,1.6,0,2.5,0,2.7,0,5.5,0,8.2,0,2,0,3.9,0,5.9,0,5.3,0,10.6,0,15.9,0,5.6,0,11.1,0,16.7,0,10.5,0,21,0,31.5,0,12,0,23.9,0,35.9,0,24.6,0,49.2,0,73.9,0v-47.2H15V15.6Z"/>
  <path class="st0" d="M2732.3,14c2.2,0,4.4,0,6.6,0,5.9,0,11.9,0,17.8,0,5,0,9.9,0,14.9,0,11.7,0,23.5,0,35.2,0,12.1,0,24.2,0,36.2,0,10.4,0,20.8,0,31.2,0,6.2,0,12.4,0,18.6,0,5.8,0,11.7,0,17.5,0,2.1,0,4.3,0,6.4,0,14.9,0,29.1.2,41,10.5,11.1,11.4,12.5,23.7,12.5,39,0,1.7,0,3.4,0,5.1,0,4.6,0,9.3,0,13.9,0,3.9,0,7.7,0,11.6,0,9.1,0,18.3,0,27.4,0,9.4,0,18.8,0,28.2,0,8.1,0,16.2,0,24.3,0,4.8,0,9.7,0,14.5,0,4.5,0,9.1,0,13.6,0,1.7,0,3.3,0,5,.1,16.5-3.2,28.2-14.7,40.2-9.5,9-20.3,12.3-33.1,12.3-.9,0-1.8,0-2.7,0-2.9,0-5.9,0-8.8,0-2.1,0-4.2,0-6.3,0-5.7,0-11.5,0-17.2,0-3.6,0-7.2,0-10.8,0-11.2,0-22.5,0-33.7,0-13,0-25.9,0-38.9,0-10,0-20.1,0-30.1,0-6,0-12,0-18,0-5.6,0-11.3,0-16.9,0-2.1,0-4.1,0-6.2,0-17.1,0-30.7-1.8-44-13.6-8.3-8.8-12.5-20.6-12.6-32.5,0-.7,0-1.4,0-2.1,0-2.4,0-4.7,0-7.1,0-1.7,0-3.4,0-5.1,0-5.6,0-11.2,0-16.7,0-1.9,0-3.9,0-5.8,0-9.1,0-18.1,0-27.2,0-10.4,0-20.9,0-31.3,0-8.1,0-16.1,0-24.2,0-4.8,0-9.6,0-14.4,0-4.5,0-9.1,0-13.6,0-1.7,0-3.3,0-5-.1-13.3,1.7-24.2,10.5-34.6,12.8-13,28.9-12.6,46-12.5ZM2725.9,65c0,22.2-.1,44.3-.2,67.1,0,7,0,14,0,21.2q0,6.3,0,12.5c0,2.8,0,5.6,0,8.4,0,4.2,0,8.5,0,12.7,0,1.2,0,2.5,0,3.8q0,8.5,3.7,16c4.8,2.9,8.4,3.7,14,3.7q1.1,0,2.2,0c2.4,0,4.8,0,7.1,0,1.7,0,3.4,0,5.1,0,4.6,0,9.3,0,13.9,0,4.9,0,9.7,0,14.6,0,8.2,0,16.3,0,24.5,0,9.4,0,18.8,0,28.3,0,8.1,0,16.2,0,24.3,0,4.8,0,9.7,0,14.5,0,4.5,0,9.1,0,13.6,0,1.7,0,3.3,0,5,0,2.3,0,4.6,0,6.8,0q1.9,0,3.9,0c4.1-.5,6.6-1.5,10.1-3.7,3-3.8,3.7-6.6,3.7-11.3,0-1.2,0-2.3,0-3.5,0-1.3,0-2.5,0-3.8,0-1.4,0-2.7,0-4.1,0-3.6,0-7.3,0-10.9,0-3.4,0-6.8,0-10.3,0-10,0-20-.1-30,0-22.4-.1-44.7-.2-67.8h-194.4Z"/>
  <path class="st0" d="M2238.2,14.5h293.3c0,33.4.2,66.8.3,101.3,0,10.5,0,21.1.1,31.9q0,12.9,0,19c0,4.2,0,8.4,0,12.6,0,5.4,0,10.8,0,16.1,0,2,0,3.9,0,5.9.1,15-.9,28.9-11.5,40.6-.9,1-1.7,1.9-2.6,2.9-11.5,10.4-21.9,14.9-37.3,14.8q-1.6,0-3.1,0c-3.5,0-6.9,0-10.4,0-2.5,0-5,0-7.5,0-6.8,0-13.5,0-20.3,0-7.1,0-14.1,0-21.2,0-11.9,0-23.7,0-35.6,0-12.2,0-24.4,0-36.6,0q-1.1,0-2.3,0c-6.6,0-13.2,0-19.9,0-28.5,0-57,0-85.5,0V112.2h49.4v97.8q30.6,0,61.2-.2c12.5,0,24.9-.1,37.4-.1,9.1,0,18.2,0,27.3,0,4.8,0,9.6,0,14.4,0,4.5,0,9.1,0,13.6,0,1.7,0,3.3,0,5,0,10.8,0,20.6-.3,28.9-8,5.2-8.3,6-16.3,6-25.9,0-1.2,0-2.4,0-3.6,0-3.9,0-7.9,0-11.8,0-2.7,0-5.5,0-8.2,0-6.5,0-12.9.1-19.4,0-8.1,0-16.2.1-24.3,0-14.4.2-28.8.2-43.2-1,0-2,0-3.1,0-24.8,0-49.6.1-74.4.2-12,0-24,0-36,0-10.5,0-20.9,0-31.4,0-5.5,0-11.1,0-16.6,0-5.2,0-10.4,0-15.6,0-1.9,0-3.8,0-5.7,0-15.6,0-29.3-1-42.4-10.3-1.2-.8-2.3-1.6-3.5-2.4-7.3-7.3-13.9-17.9-15.2-28.4v-9.9Z"/>
  <path class="st0" d="M1896.6,14.5h50.5v195.5c28.3-.1,56.5-.2,85.6-.3,8.9,0,17.8,0,27,0q8,0,16,0c3.6,0,7.1,0,10.7,0,4.5,0,9.1,0,13.6,0,1.7,0,3.3,0,5,0q14.6,0,27.5-6.2c7.3-9.4,7.4-17.7,7.4-29.1,0-1.7,0-3.5,0-5.2,0-4.7,0-9.4,0-14.1,0-4.9,0-9.9,0-14.8,0-9.3,0-18.7,0-28,0-10.6,0-21.3.1-31.9,0-21.9.1-43.7.2-65.6h50.5c0,25.7,0,51.4.1,77.1,0,11.9,0,23.9,0,35.8,0,10.4,0,20.8,0,31.2,0,5.5,0,11,0,16.5,0,5.2,0,10.4,0,15.6,0,1.9,0,3.8,0,5.7,0,19.4-1.2,34.9-15.1,49.5-15.3,14.2-31.8,14-51.5,13.9-2.5,0-5,0-7.5,0-6.7,0-13.5,0-20.2,0-7,0-14.1,0-21.1,0-11.8,0-23.6,0-35.5,0-12.2,0-24.3,0-36.5,0-.8,0-1.5,0-2.3,0-6.6,0-13.2,0-19.8,0-28.4,0-56.8,0-85.2-.2V14.5Z"/>
  <path class="st0" d="M355.5,15.6h49.4v194.4c29,0,58-.1,87.8-.2q13.7,0,27.7,0,8.2,0,16.4,0c3.7,0,7.3,0,11,0,4.7,0,9.3,0,14,0,1.7,0,3.4,0,5.1,0,9.3,0,17.2-.1,24.7-6.2,8.1-9.1,6.9-21.9,6.9-33.3,0-1.7,0-3.4,0-5.1,0-4.6,0-9.1,0-13.7,0-4.8,0-9.6,0-14.3,0-9,0-18.1.1-27.1,0-10.3,0-20.6.2-30.9.1-21.2.2-42.3.3-63.5h49.4c0,26.1.1,52.2.2,78.4,0,12.1,0,24.3,0,36.4,0,10.6,0,21.2,0,31.7,0,5.6,0,11.2,0,16.8,0,5.3,0,10.6,0,15.8,0,1.9,0,3.9,0,5.8.1,17.7-1.8,32.7-14.5,46.1-11.6,10.9-24.5,14.1-40.1,14.1-1,0-2,0-3.1,0-3.4,0-6.9,0-10.3,0-2.5,0-4.9,0-7.4,0-6.7,0-13.3,0-20,0-7,0-13.9,0-20.9,0-11.7,0-23.4,0-35.1,0-12,0-24.1,0-36.1,0q-1.1,0-2.3,0c-6.5,0-13.1,0-19.6,0-28.1,0-56.2,0-84.3,0V15.6Z"/>
  <path class="st0" d="M696,14.5c7.5,0,15.1-.1,22.6-.2,2.6,0,5.1,0,7.7,0,21.9-.2,42.3-.3,59.3,15.5.6.5,1.1,1.1,1.7,1.6,6.7,6.3,13.2,12.8,19.7,19.3,1.4,1.4,2.8,2.8,4.1,4.1,3.7,3.7,7.4,7.4,11.1,11.1,3.9,3.9,7.7,7.8,11.6,11.6,7.3,7.3,14.6,14.6,22,22,8.3,8.3,16.7,16.7,25,25,17.1,17.1,34.3,34.3,51.4,51.5,0-.7,0-1.4,0-2.1,0-16.7,0-33.4,0-50.1,0-8.1,0-16.1,0-24.2,0-7,0-14.1,0-21.1,0-3.7,0-7.4,0-11.2,0-4.2,0-8.3,0-12.5,0-1.2,0-2.4,0-3.7.2-10,3.2-18.6,10-26.1,13.9-13.2,27.2-10.4,46.9-10.4v244.9q-53.9,1.2-68.4-11.3c-.9-1-1.8-2-2.7-3-1-1.1-2.1-2.3-3.1-3.4-.5-.6-1.1-1.2-1.6-1.7-2.9-3.1-5.9-6-8.9-9-5.1-5.1-10.2-10.3-15.2-15.6-7.2-7.6-14.5-15.1-21.9-22.5-12-12.1-23.8-24.3-35.6-36.5-11.4-11.9-22.9-23.7-34.5-35.5-.7-.7-1.4-1.5-2.2-2.2-2.9-2.9-5.8-5.8-8.6-8.8-22.5-22.9-45-45.9-67.4-69-1.7-1.8-3.4-3.5-5.1-5.3-3.1-3.2-6.2-6.4-9.3-9.6-.9-.9-1.8-1.9-2.8-2.9q-1.2-1.3-2.5-2.6c-.7-.7-1.4-1.5-2.2-2.2q-1.5-1.8-1.5-4Z"/>
  <path class="st0" d="M1556.1,14.5h293.3c0,14.8-3.8,25.8-14.1,36.6-8.1,8.5-20.4,14.5-25.8,14.5-32.8.2-78.9-.1-82-.5v194.4h-49.4V65h-78c-15.3-3.5-25.4-7.6-35.1-19.8-6.3-10.3-8.8-18.7-8.8-30.8Z"/>
  <path class="st0" d="M2578.7,14.5h50.5v244.9h-50.5V14.5Z"/>
  <path class="st0" d="M696,77.1c2.5,2.2,5.1,4.3,7.7,6.6,1.7,1.1,3.5,2.2,5.3,3.2,17.9,10.4,36.4,24.7,43,45.2,4.8,21.6,3.6,44.7,3,66.7,0,.7,0,1.5,0,2.2-.5,19.5-1.7,38.9-3,58.4h-56V77.1Z"/>
</svg>