<?xml version="1.0" encoding="UTF-8"?><svg id="Layer_1" xmlns="http://www.w3.org/2000/svg" viewBox="0 0 3315.23 266.75"><defs><style>.cls-1{stroke:#000;stroke-miterlimit:10;stroke-width:20px;}</style></defs><path class="cls-1" d="M1210.56,10.58h293.28c-1.45,17.37-4.92,27.5-17.3,39.27-13.8,11.48-30.2,11.58-47.23,11.51-1.96,0-3.92,0-5.88,0-5.29,0-10.59-.01-15.88-.03-5.54-.01-11.09-.02-16.63-.02-10.48,0-20.97-.02-31.45-.05-11.94-.02-23.88-.04-35.82-.05-24.55-.02-49.1-.06-73.65-.11v47.23h243.85v147.19h-293.28c0-13.53,2.7-22.35,10.98-32.95.53-.68,1.05-1.35,1.59-2.05,6.12-6.94,16.69-12.72,25.87-14.43,2.77-.1,5.51-.14,8.28-.13q1.26,0,2.54,0c2.81,0,5.62,0,8.43.01,2.01,0,4.03,0,6.04,0,5.47,0,10.94,0,16.41.01,5.71,0,11.43,0,17.14,0,10.82,0,21.64.01,32.47.02,12.32.01,24.64.02,36.96.02,25.34.01,50.69.03,76.03.06v-48.33h-242.75V10.58Z"/><path class="cls-1" d="M3011.95,10.58h293.28c0,15.3-2.87,24.85-13.18,36.25-11.71,10.43-23.67,14.48-39.23,14.41q-1.23,0-2.48,0c-2.72,0-5.45,0-8.17-.01-1.96,0-3.92,0-5.88,0-5.31,0-10.62,0-15.92-.01-5.55,0-11.1,0-16.65,0-10.51,0-21.01-.01-31.52-.02-11.96-.01-23.93-.02-35.89-.02-24.61-.01-49.21-.03-73.82-.06v47.23h242.75v147.19h-293.28c1.22-13.46,3.14-22.82,12.08-32.95.59-.68,1.18-1.36,1.78-2.06,4.6-4.95,9.6-8.41,15.79-11.13,1.28-.56,2.56-1.12,3.88-1.7,8.31-2.72,17.24-2.02,25.88-1.97,2.01,0,4.03,0,6.04,0,5.45,0,10.89.02,16.34.04,5.7.02,11.4.02,17.1.03,10.78.01,21.57.04,32.35.07,12.28.04,24.56.05,36.84.07,25.25.03,50.5.09,75.76.17v-48.33h-243.85V10.58Z"/><path class="cls-1" d="M10,11.67h293.28c-2.64,19.8-6.69,30.38-22.05,42.43-11.49,7.82-24.16,7.46-37.5,7.38-2.01,0-4.03,0-6.04,0-5.44,0-10.88-.02-16.32-.04-5.7-.02-11.39-.02-17.09-.03-10.78-.01-21.55-.04-32.33-.07-12.27-.04-24.54-.05-36.82-.07-25.23-.03-50.47-.09-75.7-.17v48.33h243.85v147.19H10c0-15.31,2.87-24.83,13.18-36.25,11.34-10.24,23.97-14.48,39.1-14.41.82,0,1.63,0,2.48,0,2.73,0,5.45,0,8.18.01,1.96,0,3.92,0,5.88,0,5.31,0,10.62,0,15.94.01,5.55,0,11.11,0,16.66,0,10.51,0,21.03.01,31.54.02,11.97.01,23.94.02,35.92.02,24.62.01,49.25.03,73.87.06v-47.23H10V11.67Z"/><path class="cls-1" d="M2727.31,10.13c2.2,0,4.39-.01,6.59-.02,5.94-.02,11.88-.02,17.82-.01,4.97,0,9.94,0,14.91,0,11.73-.02,23.46-.01,35.2,0,12.08.01,24.15,0,36.23-.03,10.39-.02,20.79-.03,31.18-.03,6.2,0,12.39,0,18.59-.02,5.83-.02,11.66-.01,17.49,0,2.13,0,4.26,0,6.39-.01,14.9-.07,29.09.22,41,10.48,11.14,11.41,12.5,23.68,12.45,38.99,0,1.71.01,3.42.02,5.13.02,4.63.02,9.25.01,13.88,0,3.87,0,7.75,0,11.62.02,9.14.01,18.29,0,27.43-.01,9.41,0,18.81.03,28.22.02,8.1.03,16.2.03,24.3,0,4.83,0,9.65.02,14.48.02,4.54.01,9.09,0,13.63,0,1.66,0,3.32.01,4.97.11,16.49-3.21,28.21-14.68,40.23-9.45,9.01-20.34,12.32-33.14,12.31-.88,0-1.76,0-2.67,0-2.95,0-5.9.01-8.84.01-2.11,0-4.23.01-6.34.02-5.74.01-11.49.02-17.23.03-3.59,0-7.18,0-10.77.01-11.24.02-22.48.03-33.72.03-12.96,0-25.93.02-38.89.06-10.03.02-20.06.03-30.08.04-5.99,0-11.97,0-17.96.03-5.63.02-11.27.02-16.9.01-2.06,0-4.12,0-6.19.01-17.07.08-30.68-1.82-44-13.59-8.29-8.79-12.54-20.58-12.59-32.47,0-.71,0-1.42-.01-2.15-.01-2.37-.02-4.74-.02-7.1,0-1.7-.01-3.4-.02-5.11-.02-5.58-.03-11.16-.05-16.75,0-1.93,0-3.85-.01-5.78-.02-9.05-.04-18.1-.05-27.15-.01-10.43-.04-20.85-.08-31.28-.03-8.07-.05-16.15-.05-24.22,0-4.82-.01-9.63-.04-14.45-.03-4.54-.03-9.07-.02-13.6,0-1.66,0-3.31-.02-4.97-.11-13.27,1.68-24.24,10.45-34.65,12.84-13.04,28.88-12.57,45.95-12.53ZM2720.87,61.1c-.07,22.16-.14,44.31-.21,67.14-.03,6.99-.06,13.99-.09,21.19q-.01,6.27-.02,12.55c0,2.79-.02,5.58-.03,8.38-.02,4.23-.03,8.46-.03,12.7-.01,1.24-.02,2.48-.04,3.76q-.03,8.51,3.71,15.98c4.81,2.91,8.38,3.71,13.97,3.71q1.07,0,2.16.02c2.38.01,4.76,0,7.13,0,1.71,0,3.42.01,5.13.02,4.64.02,9.27,0,13.91,0,4.86,0,9.71,0,14.57,0,8.16,0,16.31,0,24.47-.02,9.42-.02,18.85-.01,28.27,0,8.1.01,16.19.02,24.29,0,4.83,0,9.67,0,14.5,0,4.54,0,9.09,0,13.63-.02,1.67,0,3.33,0,5,0,2.28,0,4.55,0,6.83-.02q1.91,0,3.86,0c4.1-.48,6.65-1.47,10.11-3.71,2.97-3.78,3.71-6.57,3.69-11.32,0-1.15,0-2.3.01-3.49-.01-1.26-.02-2.51-.04-3.81,0-1.35,0-2.7,0-4.09,0-3.65-.02-7.29-.04-10.94-.02-3.42-.02-6.85-.02-10.27-.02-10.01-.06-20.01-.11-30.02-.07-22.36-.14-44.72-.21-67.76h-194.42Z"/><path class="cls-1" d="M2233.18,10.58h293.28c.09,33.42.18,66.83.27,101.26.04,10.54.08,21.07.12,31.93q.02,12.9.02,18.95c0,4.21.02,8.42.04,12.62.03,5.38.04,10.76.03,16.14,0,1.97,0,3.93.03,5.9.12,15.02-.86,28.95-11.51,40.56-.86.95-1.72,1.9-2.61,2.88-11.47,10.37-21.88,14.87-37.3,14.82q-1.55,0-3.14,0c-3.47,0-6.95,0-10.42-.01-2.49,0-4.98,0-7.47,0-6.76,0-13.52,0-20.29-.01-7.07,0-14.13,0-21.2,0-11.86,0-23.72,0-35.58-.02-12.22-.01-24.43-.02-36.65-.02q-1.14,0-2.31,0c-6.62,0-13.24,0-19.86,0-28.49-.01-56.98-.03-85.47-.05V108.33h49.43v97.76q30.58-.07,61.15-.18c12.47-.05,24.94-.1,37.42-.12,9.08-.01,18.17-.04,27.25-.09,4.81-.02,9.61-.04,14.42-.04,4.53,0,9.06-.02,13.59-.05,1.66,0,3.31-.01,4.97,0,10.81.03,20.63-.34,28.95-7.95,5.18-8.33,6.05-16.28,6.04-25.94.01-1.2.02-2.4.03-3.64.03-3.94.04-7.88.05-11.82.02-2.74.04-5.49.06-8.23.05-6.47.08-12.93.1-19.4.03-8.09.09-16.18.14-24.27.09-14.42.17-28.83.23-43.25-1.02,0-2.03,0-3.08,0-24.79.07-49.58.13-74.37.16-11.99.02-23.98.04-35.97.08-10.45.03-20.91.05-31.36.06-5.53,0-11.06.01-16.59.04-5.22.02-10.43.03-15.65.02-1.91,0-3.81,0-5.72.02-15.61.1-29.3-.95-42.43-10.28-1.16-.79-2.31-1.59-3.5-2.4-7.31-7.31-13.93-17.89-15.17-28.35v-9.89Z"/><path class="cls-1" d="M1891.58,10.58h50.53v195.52c28.25-.11,56.5-.23,85.61-.34,8.91-.03,17.83-.05,27.01-.08q8-.04,16.01-.08c3.56-.02,7.12-.03,10.68-.04,4.55,0,9.09-.03,13.64-.06,1.66,0,3.33-.01,4.99-.01q14.63.08,27.49-6.18c7.3-9.39,7.44-17.66,7.4-29.11,0-1.74.02-3.49.03-5.23.03-4.71.03-9.43.03-14.14,0-4.93.03-9.87.06-14.8.04-9.33.07-18.66.08-28,.02-10.63.06-21.26.1-31.88.09-21.85.15-43.71.19-65.56h50.53c.05,25.69.09,51.39.11,77.08.01,11.93.03,23.86.05,35.79.02,10.4.04,20.81.04,31.21,0,5.5,0,11.01.03,16.51.01,5.19.02,10.38.02,15.57,0,1.9,0,3.79.01,5.69.08,19.36-1.19,34.93-15.07,49.55-15.33,14.19-31.76,14.02-51.49,13.92-2.49,0-4.98,0-7.47,0-6.73,0-13.47-.02-20.2-.04-7.05-.02-14.1-.02-21.14-.03-11.82,0-23.64-.03-35.46-.06-12.17-.03-24.34-.05-36.51-.07-.76,0-1.52,0-2.3,0-6.6,0-13.21-.01-19.81-.02-28.39-.03-56.77-.1-85.16-.16V10.58Z"/><path class="cls-1" d="M350.51,11.67h49.43v194.42c28.98-.07,57.95-.14,87.8-.21q13.71-.01,27.7-.02,8.21-.03,16.42-.07c3.65-.02,7.3-.02,10.95-.01,4.66,0,9.33,0,13.99-.05,1.71,0,3.41,0,5.12,0,9.28.05,17.23-.14,24.74-6.23,8.08-9.12,6.92-21.88,6.94-33.33.01-1.69.02-3.38.03-5.07.03-4.56.05-9.12.06-13.68.02-4.78.05-9.55.07-14.33.05-9.03.09-18.07.13-27.1.04-10.29.1-20.58.15-30.86.11-21.15.21-42.31.3-63.46h49.43c.07,26.12.14,52.25.17,78.37.02,12.13.04,24.26.08,36.39.03,10.58.05,21.15.06,31.73,0,5.6.01,11.19.04,16.79.02,5.28.03,10.55.02,15.83,0,1.93,0,3.86.02,5.79.11,17.73-1.77,32.7-14.53,46.11-11.58,10.9-24.45,14.12-40.05,14.07-1.02,0-2.05,0-3.1,0-3.43,0-6.85,0-10.28-.01-2.46,0-4.91,0-7.37,0-6.67,0-13.34,0-20.01-.01-6.97,0-13.94,0-20.91,0-11.7,0-23.4,0-35.1-.02-12.05-.01-24.1-.02-36.15-.02q-1.13,0-2.27,0c-6.53,0-13.06,0-19.59,0-28.1-.01-56.2-.03-84.3-.05V11.67Z"/><path class="cls-1" d="M691.01,10.58c7.54-.08,15.08-.14,22.62-.18,2.56-.02,5.12-.04,7.68-.07,21.9-.24,42.29-.29,59.28,15.53.57.53,1.13,1.05,1.71,1.59,6.7,6.28,13.19,12.77,19.67,19.27,1.38,1.38,2.75,2.75,4.13,4.13,3.69,3.69,7.38,7.39,11.07,11.09,3.87,3.88,7.75,7.76,11.62,11.63,7.32,7.32,14.64,14.65,21.95,21.97,8.34,8.35,16.68,16.69,25.02,25.04,17.14,17.15,34.27,34.3,51.4,51.46,0-.68,0-1.37,0-2.07,0-16.7.02-33.39.09-50.09.03-8.07.05-16.15.04-24.22,0-7.04,0-14.09.05-21.13.02-3.72.03-7.45.02-11.17-.01-4.17.01-8.34.05-12.52-.01-1.22-.03-2.43-.04-3.68.16-10.04,3.15-18.63,9.98-26.15,13.88-13.19,27.15-10.43,46.93-10.43v244.95q-53.93,1.2-68.39-11.25c-.88-.98-1.76-1.96-2.66-2.96-1.04-1.13-2.09-2.26-3.14-3.39-.53-.58-1.05-1.15-1.59-1.75-2.86-3.08-5.88-6.01-8.87-8.97-5.14-5.11-10.18-10.29-15.16-15.56-7.2-7.61-14.54-15.06-21.92-22.5-11.97-12.07-23.83-24.25-35.61-36.5-11.43-11.88-22.91-23.71-34.47-35.46-.72-.73-1.43-1.45-2.17-2.2-2.88-2.92-5.75-5.85-8.63-8.77-22.55-22.91-45.03-45.88-67.36-69.01-1.7-1.76-3.41-3.52-5.11-5.28-3.1-3.2-6.19-6.41-9.28-9.62-.92-.94-1.83-1.89-2.77-2.86q-1.23-1.28-2.48-2.59c-.71-.74-1.43-1.48-2.16-2.24q-1.51-1.84-1.51-4.03Z"/><path class="cls-1" d="M1551.07,10.58h293.28c0,14.79-3.81,25.77-14.14,36.59-8.12,8.5-20.38,14.45-25.76,14.48-32.78.19-78.94-.1-82.02-.55v194.42h-49.43V61.1h-77.99c-15.29-3.53-25.43-7.6-35.15-19.77-6.31-10.25-8.79-18.69-8.79-30.76Z"/><path class="cls-1" d="M2573.69,10.58h50.53v244.95h-50.53V10.58Z"/><path class="cls-1" d="M691.01,73.19c2.54,2.17,5.07,4.35,7.69,6.59,1.73,1.11,3.5,2.18,5.31,3.16,17.91,10.39,36.42,24.73,43.02,45.17,4.83,21.63,3.63,44.68,3.02,66.73-.02.74-.04,1.48-.06,2.25-.54,19.52-1.69,38.95-2.96,58.44h-56.02V73.19Z"/></svg>